# xmcd CD Database Entry
#
# Track frame offsets:
# 200
# 12517
# 25687
# 45502
# 56460
# 71550
# 89972
# 106020
# 126140
# 139917
# 162010
#
# Disc length: 2219 seconds
#
# Revision: 2
# Processed by: cddbd v1.4PL0 Copyright (c) Steve Scherf et al.
# Submitted via: tcd 2.0b
#
DISCID=8e08a90b
DTITLE=Roy Rogers - Chops Not Chaps
DYEAR=1900
DGENRE=
TTITLE0=32/20 Blues
TTITLE1=Hot To Trot/Ready To Go
TTITLE2=Guilty Of Lovin' You
TTITLE3=Judgment Day
TTITLE4=Devil Got My Woman
TTITLE5=Feel So Blue
TTITLE6=Terraplane Blues
TTITLE7=Kindhearted Woman
TTITLE8=One More Time
TTITLE9=Shake Your Moneymaker
TTITLE10=Happy Trails
EXTD=
EXTT0=
EXTT1=
EXTT2=
EXTT3=
EXTT4=
EXTT5=
EXTT6=
EXTT7=
EXTT8=
EXTT9=
EXTT10=
PLAYORDER=
